<svg width="512" height="512" viewBox="0 0 512 512" xmlns="http://www.w3.org/2000/svg" role="img" aria-label="Senate Oversight Contact Directory">
  <rect width="512" height="512" fill="#060d18"/>
  <rect x="40" y="40" width="432" height="432" rx="72" fill="none" stroke="#c8a96e" stroke-opacity="0.25" stroke-width="4"/>
  <g fill="#c8a96e">
    <!-- finial -->
    <circle cx="256" cy="120" r="9"/>
    <rect x="252" y="128" width="8" height="20"/>
    <!-- dome -->
    <path d="M256 150 C212 150 184 192 184 232 L328 232 C328 192 300 150 256 150 Z"/>
    <!-- drum / colonnade band -->
    <rect x="176" y="238" width="160" height="14" rx="3"/>
    <!-- columns (centered, even 25px pitch, symmetric about x=256) -->
    <g>
      <rect x="175" y="258" width="12" height="70"/>
      <rect x="200" y="258" width="12" height="70"/>
      <rect x="225" y="258" width="12" height="70"/>
      <rect x="250" y="258" width="12" height="70"/>
      <rect x="275" y="258" width="12" height="70"/>
      <rect x="300" y="258" width="12" height="70"/>
      <rect x="325" y="258" width="12" height="70"/>
    </g>
    <!-- entablature + steps -->
    <rect x="160" y="334" width="192" height="16" rx="3"/>
    <rect x="146" y="356" width="220" height="14" rx="3"/>
    <rect x="132" y="376" width="248" height="14" rx="3"/>
  </g>

  <!-- foreground: telephone receiver (lower-left). Accent red #d8382c / blue #3a7bd5 below are
       intentional icon-only colors; this standalone SVG is rasterized by sharp and can't reference
       the app's CSS design tokens. Path is the Material Icons "call" glyph (Apache-2.0), 24x24 grid scaled x5. -->
  <g transform="translate(100 258) scale(5)" fill="#d8382c" stroke="#060d18" stroke-width="1.2" stroke-linejoin="round">
    <path d="M6.62 10.79c1.44 2.83 3.76 5.14 6.59 6.59l2.2-2.2c.27-.27.67-.36 1.02-.24 1.12.37 2.33.57 3.57.57.55 0 1 .45 1 1V20c0 .55-.45 1-1 1-9.39 0-17-7.61-17-17 0-.55.45-1 1-1h3.5c.55 0 1 .45 1 1 0 1.25.2 2.45.57 3.57.11.35.03.74-.24 1.02l-2.2 2.2z"/>
  </g>

  <!-- foreground: letter envelope (lower-right, blue) -->
  <g transform="translate(298 278)" stroke="#060d18" stroke-width="6" stroke-linejoin="round" stroke-linecap="round">
    <rect x="0" y="0" width="108" height="76" rx="10" fill="#3a7bd5"/>
    <path d="M4 8 L54 46 L104 8" fill="none"/>
  </g>
</svg>
